<svg font-family="arial" font-size="14" height="240" width="256" xmlns="http://www.w3.org/2000/svg">
<defs>
<marker id="triangle" markerHeight="10" markerUnits="strokeWidth" markerWidth="10" orient="auto" refX="15" refY="10" viewBox="0 0 50 20">
<path d="M 0 0 L 30 10 L 0 20 z"/>
</marker>
</defs>
<style>

    line, path {
      stroke: black;
      stroke-width: 2;
      stroke-opacity: 1;
      fill-opacity: 1;
      stroke-linecap: round;
      stroke-linejoin: miter;
    }
    circle {
      stroke: black;
      stroke-width: 2;
      stroke-opacity: 1;
      fill-opacity: 1;
      stroke-linecap: round;
      stroke-linejoin: miter;
      fill:white;
    }
    circle.solid {
      fill:black;
    }
    circle.open {
      fill:white;
    }
    tspan.head{
        fill: none;
        stroke: none;
    }
    
</style>
<path d=" M 4 12 L 4 192 M 8 8 A 4 4 0 0 0 4 12 M 8 8 L 216 8 M 220 12 L 220 192 M 220 12 A 4 4 0 0 0 216 8 M 4 16 L 4 192 M 220 16 L 220 192 M 16 40 L 4 40 M 16 40 L 220 40 M 20 76 L 20 160 M 24 72 A 4 4 0 0 0 20 76 M 24 72 L 200 72 M 204 76 L 204 160 M 204 76 A 4 4 0 0 0 200 72 M 20 80 L 20 160 M 204 80 L 204 160 M 20 160 L 20 164 A 4 4 0 0 0 24 168 L 200 168 M 204 160 L 204 164 M 200 168 A 4 4 0 0 0 204 164 M 4 192 L 4 196 A 4 4 0 0 0 8 200 L 216 200 M 220 192 L 220 196 M 216 200 A 4 4 0 0 0 220 196" fill="none"/>
<path d="" fill="none" stroke-dasharray="3 3"/>
<text x="74" y="28">
CI Server
</text>
<text x="66" y="92">
Build Process
</text>
<text x="58" y="108">
Cross Compiler
</text>
<text x="50" y="124">
Static Analyzers
</text>
<text x="66" y="140">
Code Quality
</text>
<text x="58" y="156">
Style Checkers
</text>
</svg>
